<svg width="96.000000" height="33.000000" viewBox="0 0 96 33" fill="none" xmlns="http://www.w3.org/2000/svg" xmlns:xlink="http://www.w3.org/1999/xlink">
	<desc>
			Created with Pixso.
	</desc>
	<defs/>
	<path id="Combined Shape" d="M15.1029 16.0796L19.3031 16.0796L19.3031 21.9136C17.9926 22.3298 16.3378 22.5583 14.6177 22.5583C7.64661 22.5583 3.54944 16.6548 3.54944 10.8892C3.54944 5.23413 7.25537 1.26758 12.4257 1.26758C15.6974 1.26758 17.6011 2.36377 19.3042 3.89062L19.3042 5.79395L22.4977 2.63574C20.4778 1.28442 17.553 0 13.3724 0C4.19495 0 0 6.49316 0 11.8291C0 19.4246 5.59412 24 12.624 24C16.0326 24 19.0592 23.4854 22.5552 22.5234L22.5552 16.4961C22.5552 16.1877 22.6921 15.9763 22.8969 15.7908L24 14.6997L16.5085 14.6997L15.1029 16.0796ZM81.0302 23L74.6633 23L75.83 21.8459C76.0214 21.6494 76.1105 21.458 76.1105 21.177L76.1105 1.40259L74 1.40259L75.4131 0L80.8427 0L79.6942 1.13989C79.5659 1.26221 79.3903 1.45483 79.3903 1.83081L79.3903 20.9209C79.3903 21.3293 79.6824 21.751 80.174 21.8108L82 22.0374L81.0302 23ZM25 15.606C25 11.6897 28.2185 8 33.4128 8L33.4128 8.00146C37.97 8.00146 41 11.6062 41 15.3181C41 19.3032 37.8995 23 32.8462 23C27.5929 23 25 18.9866 25 15.606ZM43 15.606C43 11.6897 46.2185 8 51.4128 8L51.4128 8.00146C55.97 8.00146 59 11.6062 59 15.3181C59 19.3032 55.8995 23 50.8462 23C45.5929 23 43 18.9866 43 15.606ZM60.6604 14.1282C60.6604 10.8955 63.032 8 67.4159 8L67.4159 8.00024L73.9133 8.00024L72.595 9.37549L70.8405 9.37549C72.2776 10.6501 72.9084 12.0112 72.9084 13.5933C72.9084 15.8994 71.6606 17.0547 70.7772 17.8354C70.6161 17.9854 70.1849 18.2983 69.9359 18.5723C69.7947 18.7402 69.4093 19.1851 69.4093 19.8572C69.4093 20.3264 69.5592 20.7256 70.3324 21.3525C72.9617 23.4077 74 24.5996 74 26.7737C74 29.8577 71.1898 33 65.764 33C61.1809 33 59 30.6616 59 28.2859C59 25.5728 61.4113 23.0483 67.4106 22.667C66.7765 21.9172 66.4778 21.4302 66.4778 20.5627C66.479 19.9746 66.7194 19.3657 66.7194 19.3657L65.8373 19.3657C62.3506 19.3657 60.6604 16.5891 60.6604 14.1282ZM89.4207 8C85.8224 8 82 10.5764 82 15.2021C82 19.0225 84.7424 23 89.8665 23C91.1442 23 92.1963 22.8455 93.182 22.4204C94.2395 21.9631 95.2571 21.2202 96 20.2866C94.5978 20.9509 93.4541 21.3872 91.9348 21.3872C89.0477 21.3872 86.2642 19.4302 85.2903 15.833L95.4891 11.9602C94.9001 9.98706 93.239 8 89.422 8L89.4207 8ZM66.2065 9.02881C67.0021 9.02881 67.666 9.32227 68.3674 9.93115C69.1454 10.6628 70.3884 12.6287 70.3884 15.0613C70.3884 17.6865 68.4332 18.4053 67.375 18.4053C66.8571 18.4053 66.2365 18.2542 65.7109 17.8792C64.5438 17.0896 63.3851 14.9878 63.3851 12.4866C63.3851 10.2297 64.6737 9.02881 66.2065 9.02881ZM92.0807 11.7183C92.0807 10.5503 90.6851 9.05835 88.7545 9.05835C87.4783 9.05835 84.891 9.95703 84.891 13.3186C84.891 14.1201 85.0608 14.8618 85.0608 14.8618L91.3297 12.4797C91.8287 12.2954 92.0807 12.0959 92.0807 11.7183ZM32.551 9.07568C36.2134 9.07568 37.8442 13.7139 37.8442 17.022C37.8442 21.9417 34.0475 22.0391 33.5935 22.0391C31.8561 22.0391 30.6418 21.0183 29.7328 19.6794C28.9327 18.4456 28.1505 16.1531 28.1505 13.9133C28.1505 11.6821 28.9017 10.5928 30.0841 9.79126C31.051 9.19043 31.9563 9.07568 32.5498 9.07568L32.551 9.07568ZM50.551 9.07568C54.2134 9.07568 55.8442 13.7139 55.8442 17.022C55.8442 21.9417 52.0475 22.0391 51.5935 22.0391C49.8561 22.0391 48.6418 21.0183 47.7328 19.6794C46.9327 18.4456 46.1505 16.1531 46.1505 13.9133C46.1505 11.6821 46.9017 10.5928 48.0841 9.79126C49.051 9.19043 49.9563 9.07568 50.5498 9.07568L50.551 9.07568ZM68.5175 23.6921C68.5175 23.6921 68.277 23.6636 67.9425 23.6636C63.4409 23.7292 61.8004 25.5005 61.8004 27.5583C61.8004 30.0425 64.1943 31.564 67.3265 31.564C70.1802 31.564 71.942 30.0103 71.942 28.0288C71.942 26.5874 71.1417 25.7783 69.858 24.7195C69.3068 24.2803 68.5175 23.6921 68.5175 23.6921Z" clip-rule="evenodd" fill="#FFFFFF" fill-opacity="1.000000" fill-rule="evenodd"/>
</svg>
