<svg width="131.000000" height="17.000000" viewBox="0 0 131 17" fill="none" xmlns="http://www.w3.org/2000/svg" xmlns:xlink="http://www.w3.org/1999/xlink">
	<desc>
			Created with Pixso.
	</desc>
	<defs/>
	<path id="Shape" d="M65.2098 11.0601L56.5538 11.0601L58.4657 14.0298L67.2296 14.0298L69.0334 16.9998L72.8564 16.9998L62.5983 1.00781C62.1675 0.376221 61.427 0 60.6328 0C59.8115 0 59.071 0.389648 58.6268 1.03467L48.4091 16.9998L52.2322 16.9998L60.6328 3.70898L65.2098 11.0601ZM48.3014 5.85913C48.3014 9.00366 45.7435 11.5435 42.5931 11.5435L42.5934 11.5439L41.1125 11.5439L47.6282 17L42.9163 17L33.2318 8.57397L42.3779 8.5874C43.8857 8.5874 45.0973 7.3645 45.0973 5.85962C45.0973 4.35449 43.8857 3.13135 42.3779 3.13135L31.6432 3.13135L31.6432 17L28.3999 17L28.3999 0.160889L42.5931 0.160889C45.7435 0.160889 48.3014 2.71411 48.3014 5.85913ZM119.301 14.0298L131 14.0298L129.089 16.9995L119.086 16.9995C114.428 16.9995 110.645 13.2368 110.645 8.58691C110.645 3.93701 114.428 0.160889 119.086 0.160889L130.744 0.160889L128.82 3.13135L119.302 3.13135C116.811 3.13135 114.697 4.81079 114.051 7.09546L129.829 7.09546L127.917 10.0654L114.051 10.0654C114.697 12.3635 116.811 14.0298 119.301 14.0298ZM96.2673 14.0295L96.2673 0.161133L93.0231 0.161133L93.0231 15.3872C93.0231 15.8037 93.1844 16.207 93.4941 16.5161C93.8037 16.825 94.2209 16.9998 94.6787 16.9998L109.474 16.9998L111.386 14.0298L96.2671 14.0298L96.2673 14.0295ZM8.43567 16.9998C3.77905 17 0 13.2371 0 8.5874C0 3.9375 3.77905 0.161377 8.43567 0.161377L18.2402 0.161377C22.8978 0.161377 26.6741 3.9375 26.6741 8.5874C26.6741 13.2371 22.8978 16.9998 18.24 16.9998L8.43567 16.9998ZM79.6281 16.9998C74.9703 16.9998 71.1873 13.2371 71.1873 8.5874C71.1873 3.9375 74.9703 0.161377 79.6281 0.161377L91.2732 0.161377L89.3748 3.13135L79.8435 3.13135C76.8279 3.13135 74.3778 5.57715 74.3778 8.5874C74.3778 11.5974 76.8279 14.0298 79.8435 14.0298L91.5421 14.0298L89.6304 16.9998L79.6281 16.9998ZM23.4825 8.58716C23.4825 11.5974 21.0391 14.0298 18.0222 14.0298L8.65234 14.0298C5.63684 14.0298 3.19214 11.5974 3.19214 8.5874C3.19214 5.57715 5.63684 3.13135 8.65271 3.13135L18.0222 3.13135C21.0391 3.13135 23.4825 5.57715 23.4825 8.58716Z" clip-rule="evenodd" fill="#FFFFFF" fill-opacity="1.000000" fill-rule="evenodd"/>
</svg>
