<svg width="137.000000" height="26.000000" viewBox="0 0 137 26" fill="none" xmlns="http://www.w3.org/2000/svg" xmlns:xlink="http://www.w3.org/1999/xlink">
	<desc>
			Created with Pixso.
	</desc>
	<defs/>
	<path id="Combined Shape" d="M14.5406 0L14.5406 3.50146L15.2296 3.45801C24.0862 3.15405 29.8708 10.7791 29.8708 10.7791C29.8708 10.7791 23.2393 18.9104 16.335 18.9104C15.7321 18.9104 15.1436 18.8525 14.5551 18.7512L14.5551 20.9216C15.0431 20.9795 15.5454 21.0227 16.0334 21.0227C22.4641 21.0227 27.1149 17.7095 31.6221 13.803C32.3684 14.4106 35.4258 15.8721 36.0574 16.5085C31.7799 20.1257 21.8038 23.0339 16.1483 23.0339C15.6029 23.0339 15.0862 23.0051 14.5693 22.947L14.5693 26L39 26L39 0L14.5406 0ZM3.99048 11.1987C3.99048 11.1987 7.50244 5.96826 14.5406 5.41235L14.5406 7.75513C9.80383 8.27612 6.94739 11.459 6.94739 11.459C6.94739 11.459 8.59814 17.6951 14.5406 18.7656L14.5406 16.9138C11.1962 15.7708 10.0909 11.8208 10.0909 11.8208C10.0909 11.8208 12.0431 9.47681 14.5264 9.78076L14.5406 9.78076L14.5406 7.75513C14.9713 7.71167 15.4019 7.68286 15.8325 7.69727C19.9091 7.69727 22.335 10.8948 22.335 10.8948L19.0192 13.7017C17.5406 11.1987 17.0383 10.0991 14.5551 9.79517L14.5551 16.9138C15.1578 17.1162 15.7894 17.2175 16.4354 17.2175C21.2727 17.2175 25.7799 10.9092 25.7799 10.9092C25.7799 10.9092 21.6029 5.17969 15.2296 5.38232C15.0048 5.38232 14.7799 5.39624 14.5551 5.4104L14.5551 3.50146C6.74646 4.13794 0 10.7935 0 10.7935C0 10.7935 3.81824 21.9343 14.5406 22.947L14.5406 20.9216C6.67468 19.9377 3.99048 11.1987 3.99048 11.1987ZM14.5551 5.4104L14.5551 5.41113C14.5503 5.41162 14.5454 5.41211 14.5406 5.41235L14.5406 5.41113L14.5551 5.4104ZM46 21.9856L46 5L54.635 5C58.8226 5 63.1112 5.90601 63.1112 12.6084L63.1112 21.9856L58.4038 21.9856L58.4038 14.2334C58.4038 11.8604 58.1006 10.5515 57.3353 9.74609C56.7433 9.11328 55.8768 8.81128 54.635 8.81128L50.8518 8.79688L50.8518 21.9856L46 21.9856ZM72.887 18.4763L76.9014 5.02881L81.8108 5.02881L76.266 22L69.3348 22L63.8477 5.02881L69.046 5.02881L72.887 18.4763ZM83.8324 5.02881L88.6409 5.02881L88.6409 22L83.8324 22L83.8324 5.02881ZM91.5867 22L91.5867 5.02881L98.3301 5.02881C102.171 5.02881 104.741 5.48901 106.503 7.86206C107.499 9.1853 108.062 11.314 108.062 13.7014C108.062 16.3047 107.398 18.6921 106.359 19.7708C104.9 21.3096 103.543 22 99.3842 22L91.5867 22ZM110.315 22L110.315 5.02881L115.124 5.02881L115.124 22L110.315 22ZM117.087 21.9856L123.802 5.02881L130.228 5.02881L137 21.9712L131.845 21.9712L130.834 18.9797L122.892 18.9797L121.824 21.9856L117.087 21.9856ZM126.921 8.12109L129.838 16.0601L123.917 16.0601L126.921 8.12109ZM96.3518 8.71069L98.4167 8.71069C101.42 8.71069 103.355 10.0483 103.355 13.5288C103.355 17.0093 101.42 18.3613 98.4167 18.3613L96.3518 18.3613L96.3518 8.71069Z" clip-rule="evenodd" fill="#FFFFFF" fill-opacity="1.000000" fill-rule="evenodd"/>
</svg>
