<svg width="140.000000" height="27.000000" viewBox="0 0 140 27" fill="none" xmlns="http://www.w3.org/2000/svg" xmlns:xlink="http://www.w3.org/1999/xlink">
	<desc>
			Created with Pixso.
	</desc>
	<defs/>
	<path id="Combined Shape" d="M18.326 0L12 18.001L12 18.0017L14.6716 18.0017L17.7646 9.33765L18.6079 9.33765C19.1694 9.33765 19.1694 9.75415 19.0762 10.2178L16.3114 18.0017L19.0762 18.0017C19.0762 18.0017 21.4661 11.4229 21.8881 10.0327C22.3093 8.64258 21.4661 7.94751 19.8256 7.94751L18.2322 7.94751L21.0439 0L18.326 0ZM39.4573 0L22.8513 0L22.097 2.02124C28.6815 2.33594 33.9153 7.32373 33.9153 13.4299C33.9153 19.1057 29.3932 23.8147 23.468 24.7039L22.7571 26.8728L39.4573 26.8728C40.3929 26.8765 41.2915 26.5007 41.9546 25.8286C42.6176 25.1562 42.9905 24.2432 42.9908 23.2905L42.9908 3.57007C42.9908 1.58081 41.4082 0 39.4573 0ZM17.4635 24.4409C12.571 22.8379 9.05396 18.4277 9.05396 13.4307C9.05396 9.03784 12.1085 4.60474 16.1862 2.40063L17.0332 0.000732422L3.52527 0.000732422C1.57739 0.00366211 0 1.6123 0 3.59521L0 23.2639C0 25.2478 1.57825 26.8728 3.52527 26.8728L16.6096 26.8728L17.4635 24.4409ZM139.317 0.786133C138.883 0.333984 138.285 0.0837402 137.664 0.09375C137.021 0.09375 136.474 0.325195 136.02 0.786133C135.583 1.21802 135.338 1.81104 135.338 2.42969C135.338 2.44092 135.338 2.4519 135.338 2.46313C135.338 3.12354 135.563 3.68506 136.014 4.14893C136.467 4.61523 137.017 4.84766 137.664 4.84766C138.31 4.84766 138.862 4.6145 139.317 4.14893C139.754 3.7146 140 3.11914 140 2.49829C140 2.48657 140 2.47485 140 2.46313C140 1.80713 139.771 1.2478 139.317 0.786133ZM84.3534 9.17578C84.4955 9.70532 85.1794 10.7871 85.8882 10.7871L85.8882 10.7878L87.304 10.7878L90.7036 0.15625L88.2947 0.15625L86.0759 7.42041L83.7158 0.204102L81.4507 0.204102L79.0905 7.42041L76.8701 0.15625L74.4629 0.15625L77.3424 9.15283C77.4838 9.68164 78.0981 10.7878 78.8069 10.7878L80.2698 10.7878L82.5836 3.61963L84.3534 9.17578ZM130.897 10.7832L130.897 2.37012L134.412 2.37012L134.412 0.158447L125.023 0.158447L125.023 2.37012L128.491 2.37012L128.491 10.7832L130.897 10.7832ZM119.782 10.7764L119.782 2.37476L123.294 2.37476L123.294 0.165283L113.914 0.165283L113.914 2.37476L117.379 2.37476L117.379 10.7764L119.782 10.7764ZM73.1039 0.166748L65.0931 0.166748C64.0088 0.166748 63.4438 0.790771 63.4438 1.75146L63.4438 9.38452C63.4438 10.0085 64.0088 10.7764 64.9517 10.7764L73.1039 10.7764L73.1039 8.5686L65.8467 8.5686L65.8467 6.55273L71.8789 6.55273L71.8789 4.34473L65.8467 4.34473L65.8467 2.37695L73.1039 2.37695L73.1039 0.166748ZM112.153 0.171387L104.148 0.171387C103.063 0.171387 102.499 0.794678 102.499 1.75464L102.499 9.37988C102.499 10.0039 103.063 10.771 104.006 10.771L112.153 10.771L112.153 8.5647L104.901 8.5647L104.901 6.55029L110.929 6.55029L110.929 4.34399L104.901 4.34399L104.901 2.37695L112.153 2.37695L112.153 0.171387ZM49.9143 0.173584L49.9143 10.7688L52.3149 10.7688L52.3149 6.54956L58.5753 6.54956L58.5753 10.7688L60.976 10.7688L60.976 0.173584L58.5753 0.173584L58.5753 4.34473L52.3149 4.34473L52.3149 0.173584L49.9143 0.173584ZM92.4464 0.17749L92.4464 9.18408C92.4464 9.99854 93.0585 10.7649 94.1406 10.7649L101.199 10.7649L101.199 8.56104L94.847 8.56104L94.847 0.17749L92.4464 0.17749ZM137.664 4.52075C138.199 4.52979 138.714 4.31177 139.085 3.91895C139.475 3.51758 139.67 3.03223 139.67 2.4624C139.67 1.89697 139.475 1.41479 139.085 1.01562C138.694 0.614746 138.219 0.413574 137.665 0.413574C137.11 0.413574 136.638 0.614746 136.247 1.01562C135.857 1.41479 135.662 1.89697 135.662 2.4624C135.662 2.47485 135.662 2.4873 135.662 2.5C135.662 3.03247 135.871 3.5437 136.244 3.91895C136.614 4.31226 137.129 4.53052 137.664 4.52075ZM28.8323 7.90186L24.4591 7.90186L18.1576 26L20.8383 26L23.6322 17.9988L26.1047 17.9988C28.08 17.9988 28.4095 17.2542 28.7854 16.1838L30.8076 10.5076C31.5129 8.59985 30.1484 7.90186 28.8323 7.90186ZM26.0577 15.8118C26.1047 15.5322 28.08 9.99585 28.08 9.99585C28.2209 9.62378 28.2678 9.29785 27.8451 9.29785L26.6692 9.29785L24.119 16.6025L25.3054 16.6025C25.7751 16.6025 26.0107 16.0911 26.0577 15.8118ZM68.1635 16.373L65.049 16.373L60.188 27L62.736 27L63.5861 25.0771L69.616 25.0771L70.4758 27L72.9303 27L68.1635 16.373ZM120.525 22.8647C121.092 22.3833 121.469 21.6624 121.469 19.7388C121.469 17.5752 120.006 16.373 118.307 16.373L111.37 16.373L111.37 26.9993L113.73 26.9993L113.73 23.8733L117.787 23.8733C118.732 23.8733 119.204 24.6428 119.204 25.0757L119.204 26.9985L121.469 26.9985L121.469 24.7869C121.469 24.1621 121.28 23.2495 120.525 22.8647ZM86.6102 16.3828L86.6102 26.99L89.0146 26.99L89.0146 22.5737L90.2396 22.5737L94.7146 26.99L96.5052 26.99L96.5052 25.5981L92.3118 21.3745L97.3546 16.3828L94.1503 16.3828L90.051 20.3665L89.0146 20.3665L89.0146 16.3828L86.6102 16.3828ZM57.4933 16.3889L49.9143 16.3889L49.9143 26.9839L52.3149 26.9839L52.3149 24.0112L57.4924 24.0112C58.9045 24.0112 60.5052 23.1968 60.5052 20.2241L60.5052 20.2222C60.5052 17.2039 58.7635 16.3889 57.4933 16.3889ZM134.47 19.6497C134.47 17.7808 133.529 16.3911 131.553 16.3911L123.838 16.3911L123.838 26.981L131.506 26.981C134.283 26.981 134.47 24.2498 134.47 22.7642L134.47 19.6497ZM104.812 16.3936L101.708 16.3936L97.5222 25.4939L97.5222 26.9788L99.4036 26.9788L100.25 25.0625L106.261 25.0625L107.118 26.9788L109.565 26.9788L104.812 16.3936ZM73.9839 18.887L73.9839 24.4851C73.9839 25.5852 74.6417 26.9734 76.428 26.9734L82.1615 26.9734C83.4771 26.9734 84.5569 26.0645 84.5569 24.4851L84.5569 23.5283L82.2079 23.5283C82.2079 24.0066 82.1129 24.7725 81.2201 24.7725L77.1321 24.7725C76.85 24.7725 76.3807 24.5811 76.3807 23.8154L76.3807 19.6055C76.3807 19.6055 76.3732 19.5542 76.3732 19.4753C76.3732 19.2139 76.4568 18.6487 77.1785 18.6487L81.3145 18.6487C81.6901 18.6487 82.1122 19.3655 82.1608 19.844L84.5562 19.844L84.5562 18.9358C84.5562 18.0269 83.6649 16.4468 82.1608 16.3997L76.38 16.3997C75.2523 16.3997 73.9839 17.6917 73.9839 18.887ZM66.6055 18.3438L64.5768 22.8647L68.5878 22.8647L66.6055 18.3438ZM103.26 18.3577L101.238 22.8601L105.274 22.8601L103.26 18.3577ZM113.729 21.6624L118.07 21.6624C118.968 21.6624 119.203 20.5562 119.203 20.0283C119.203 19.498 118.968 18.5854 117.787 18.5854L113.729 18.5854L113.729 21.6624ZM52.3149 21.8064L56.9282 21.8064C57.9639 21.8064 57.9639 20.7041 57.9639 20.2249C57.9639 19.7456 57.9639 18.5945 56.7869 18.5945L52.3149 18.5945L52.3149 21.8064ZM132.071 23.052L132.071 20.033C132.073 20.001 132.074 19.969 132.074 19.937C132.074 19.2922 131.615 18.5959 130.942 18.5959L126.236 18.5959L126.236 24.7769L130.754 24.7769C131.6 24.7769 132.071 23.9617 132.071 23.052Z" clip-rule="evenodd" fill="#FFFFFF" fill-opacity="1.000000" fill-rule="evenodd"/>
</svg>
