<svg width="145.000000" height="31.000000" viewBox="0 0 145 31" fill="none" xmlns="http://www.w3.org/2000/svg" xmlns:xlink="http://www.w3.org/1999/xlink">
	<desc>
			Created with Pixso.
	</desc>
	<defs/>
	<path id="Combined Shape" d="M15 15L0 15L0 0L15 0L15 15ZM16 15L31 15L31 0L16 0L16 15ZM145 11.5398L145 14.061L141.857 14.061L141.857 20.2661C141.857 21.0613 142 21.6299 142.282 21.9548C142.561 22.2771 143.011 22.4402 143.62 22.4402C143.781 22.4402 143.99 22.4053 144.24 22.3352C144.489 22.2664 144.702 22.1738 144.872 22.0608L145 21.9766L145 24.5212L144.959 24.5454C144.771 24.6523 144.454 24.7522 143.987 24.8525C143.528 24.95 143.079 24.9998 142.653 24.9998C140.056 24.9998 138.74 23.5911 138.74 20.811L138.74 14.061L134.08 14.061L134.08 24.6829L130.938 24.6829L130.938 14.061L128.749 14.061L128.749 11.5398L130.938 11.5398L130.938 9.72095C130.938 8.80688 131.14 7.98096 131.54 7.26587C131.94 6.55005 132.512 5.98706 133.239 5.59253C133.965 5.19873 134.798 5 135.715 5C136.443 5 137.03 5.07788 137.461 5.23218L137.516 5.2522L137.516 7.90747L137.4 7.85596C136.937 7.65063 136.478 7.54639 136.034 7.54639C135.416 7.54639 134.932 7.7439 134.594 8.13232C134.253 8.52539 134.08 9.11499 134.08 9.8855L134.08 11.54L138.74 11.54L138.74 8.57007L138.798 8.55249L141.751 7.65259L141.856 7.62012L141.856 11.5398L145 11.5398ZM64.1812 6.45752C64.5472 6.11426 64.9928 5.94116 65.5037 5.94116C66.0409 5.94116 66.4951 6.11938 66.853 6.47144C67.2113 6.82422 67.3932 7.25317 67.3932 7.74658C67.3932 8.25024 67.2063 8.67554 66.8379 9.01123C66.4718 9.34473 66.0232 9.51416 65.5038 9.51416C64.9841 9.51416 64.5371 9.34473 64.1754 9.01074C63.8113 8.67554 63.6271 8.25 63.6271 7.74658C63.6271 7.23511 63.8136 6.80176 64.1812 6.45752ZM57.7593 24.6826L57.7593 10.5703L57.6571 10.5703L52.0358 24.6826L49.7893 24.6826L44.0789 10.5688L43.9767 10.5688L43.9767 24.6824L41 24.6824L41 6.34351L45.5626 6.34351L50.9703 19.9651L56.5428 6.34351L60.927 6.34351L60.927 24.6826L57.7593 24.6826ZM72.5059 12.127C73.5862 11.5273 74.8563 11.2231 76.2803 11.2231C76.8348 11.2231 77.4186 11.2854 78.0153 11.4087C78.6145 11.5322 79.0973 11.6951 79.4512 11.8926L79.4933 11.916L79.4933 14.9004L79.363 14.8062C78.4226 14.1267 77.4285 13.7827 76.4082 13.7827C75.2156 13.7827 74.2361 14.1853 73.4971 14.9792C72.756 15.7756 72.3799 16.855 72.3799 18.1873C72.3799 19.5112 72.7405 20.5635 73.4517 21.3127C74.1614 22.061 75.1392 22.4407 76.3569 22.4407C76.7955 22.4407 77.2957 22.3442 77.8444 22.1536C78.3943 21.9629 78.9054 21.698 79.3628 21.366L79.4933 21.2712L79.4933 24.1035L79.4525 24.127C78.4427 24.7061 77.1833 24.9998 75.7083 24.9998C74.4443 24.9998 73.3027 24.7234 72.3149 24.1782C71.3259 23.6323 70.5444 22.8455 69.9924 21.8394C69.4407 20.835 69.1615 19.6956 69.1615 18.4536C69.1615 17.0361 69.4493 15.7649 70.0165 14.6765C70.5861 13.5857 71.4233 12.7278 72.5059 12.127ZM91.5684 13.1106C92.7998 11.8582 94.5282 11.2231 96.7046 11.2231C98.7538 11.2231 100.379 11.8306 101.535 13.0291C102.691 14.2268 103.276 15.8943 103.276 17.9844C103.276 20.1003 102.652 21.8174 101.421 23.0857C100.189 24.3555 98.4951 24.9995 96.3862 24.9995C94.3622 24.9995 92.7263 24.3884 91.5242 23.1821C90.322 21.9763 89.7122 20.3218 89.7122 18.2632C89.7122 16.0967 90.3369 14.3633 91.5684 13.1106ZM106.174 12.3438C107.109 11.6003 108.334 11.2231 109.814 11.2231C110.267 11.2231 110.787 11.2766 111.361 11.3828C111.938 11.4895 112.413 11.6213 112.773 11.7751L112.822 11.7961L112.822 14.6543L112.694 14.5671C112.304 14.3025 111.836 14.0864 111.304 13.9248C110.771 13.7634 110.235 13.6812 109.712 13.6812C109.148 13.6812 108.698 13.8079 108.375 14.0571C108.054 14.3049 107.898 14.6113 107.898 14.9934C107.898 15.4246 108.024 15.7651 108.274 16.0059C108.532 16.2551 109.159 16.5798 110.137 16.9709C111.365 17.4641 112.245 18.022 112.753 18.6296C113.263 19.2424 113.522 20.0022 113.522 20.8879C113.522 22.116 113.041 23.1201 112.091 23.8733C111.148 24.6211 109.854 25 108.248 25C107.728 25 107.129 24.9309 106.469 24.7952C105.809 24.6594 105.248 24.4871 104.803 24.2827L104.756 24.2605L104.756 21.2473L104.886 21.3406C105.423 21.7246 106.016 22.0244 106.645 22.229C107.278 22.4368 107.856 22.542 108.363 22.542C109.729 22.542 110.393 22.1125 110.393 21.2295C110.393 20.9194 110.327 20.668 110.198 20.4844C110.065 20.2969 109.83 20.1042 109.499 19.9126C109.16 19.717 108.626 19.4688 107.911 19.1755C107.059 18.8113 106.417 18.4531 106.001 18.1113C105.581 17.7666 105.266 17.356 105.062 16.8896C104.859 16.4248 104.756 15.8767 104.756 15.2595C104.756 14.0725 105.233 13.0918 106.174 12.3438ZM116.735 13.1106C117.968 11.8582 119.696 11.2231 121.872 11.2231C123.921 11.2231 125.547 11.8306 126.703 13.0291C127.858 14.2268 128.444 15.8943 128.444 17.9844C128.444 20.1003 127.82 21.8174 126.588 23.0857C125.357 24.3555 123.663 24.9995 121.554 24.9995C119.53 24.9995 117.894 24.3884 116.691 23.1821C115.489 21.9763 114.88 20.321 114.88 18.2632C114.88 16.0967 115.504 14.3633 116.735 13.1106ZM84.9425 11.5398L84.9425 13.8159L84.9756 13.8159C85.2655 13.0774 85.6448 12.4849 86.1696 12.053C86.7675 11.5615 87.4655 11.3118 88.2455 11.3118C88.7628 11.3118 89.1718 11.3735 89.4608 11.4958L89.5111 11.5173L89.5111 14.634L89.3806 14.54C89.2369 14.4368 88.9933 14.3389 88.6569 14.2485C88.317 14.1577 88.0032 14.1118 87.7236 14.1118C86.8988 14.1118 86.2231 14.4668 85.7163 15.1677C85.2028 15.8772 84.9425 16.8164 84.9425 17.9595L84.9425 24.6826L81.8386 24.6826L81.8386 11.5398L84.9425 11.5398ZM63.9199 11.54L67.0238 11.54L67.0238 24.6826L63.9199 24.6826L63.9199 11.54ZM96.5645 22.4407C95.4243 22.4407 94.5249 22.064 93.8914 21.322C93.2537 20.5764 92.9312 19.5134 92.9312 18.1624C92.9312 16.7688 93.254 15.678 93.892 14.9192C94.5255 14.1653 95.4159 13.7827 96.5393 13.7827C97.6284 13.7827 98.4957 14.1479 99.1171 14.8694C99.7416 15.5945 100.058 16.6765 100.058 18.0862C100.058 19.5134 99.7603 20.6099 99.1726 21.3433C98.5891 22.071 97.712 22.4407 96.5645 22.4407ZM121.732 22.4407C120.592 22.4407 119.693 22.064 119.059 21.322C118.421 20.5764 118.098 19.5132 118.098 18.1624C118.098 16.7688 118.421 15.678 119.059 14.9192C119.693 14.1653 120.584 13.7827 121.707 13.7827C122.796 13.7827 123.663 14.1479 124.285 14.8694C124.909 15.5945 125.226 16.6765 125.226 18.0862C125.226 19.5134 124.928 20.6099 124.34 21.3433C123.757 22.071 122.879 22.4407 121.732 22.4407ZM15 31L0 31L0 16L15 16L15 31ZM16 31L31 31L31 16L16 16L16 31Z" clip-rule="evenodd" fill="#FFFFFF" fill-opacity="1.000000" fill-rule="evenodd"/>
</svg>
