<svg width="24.000000" height="24.000000" viewBox="0 0 24 24" fill="none" xmlns="http://www.w3.org/2000/svg" xmlns:xlink="http://www.w3.org/1999/xlink">
	<desc>
			Created with Pixso.
	</desc>
	<defs/>
	<path id="Shape" d="M2.40002 0L21.6 0C22.92 0 24 1.08008 24 2.40039L24 21.5996C24 22.9199 22.92 24 21.6 24L2.40002 24C1.07996 24 0 22.9199 0 21.5996L0 2.40039C0 1.08008 1.07996 0 2.40002 0ZM5.40002 7.55957C4.19995 7.55957 3.23999 6.59961 3.23999 5.40039C3.23999 4.2002 4.19995 3.24023 5.40002 3.24023C6.59998 3.24023 7.56006 4.2002 7.56006 5.40039C7.56006 6.59961 6.59998 7.55957 5.40002 7.55957ZM16.8 20.4004L20.4 20.4004L20.4 13.5596C20.4 11.2803 18.48 9.36035 16.2 9.36035C15.12 9.36035 13.8 10.0801 13.2 11.04L13.2 9.59961L9.59998 9.59961L9.59998 20.4004L13.2 20.4004L13.2 14.04C13.2 13.0801 14.04 12.2402 15 12.2402C15.96 12.2402 16.8 13.0801 16.8 14.04L16.8 20.4004ZM3.59998 20.4004L7.19995 20.4004L7.19995 9.59961L3.59998 9.59961L3.59998 20.4004Z" clip-rule="evenodd" fill="#FFFFFF" fill-opacity="1.000000" fill-rule="evenodd"/>
</svg>
