<svg width="24.000000" height="24.000000" viewBox="0 0 24 24" fill="none" xmlns="http://www.w3.org/2000/svg" xmlns:xlink="http://www.w3.org/1999/xlink">
	<desc>
			Created with Pixso.
	</desc>
	<defs/>
	<path id="Path" d="M22.675 0L1.32495 0C0.593018 0 0 0.592773 0 1.3252L0 22.6758C0 23.4072 0.593018 24 1.32495 24L12.8199 24L12.8199 14.7061L9.69202 14.7061L9.69202 11.084L12.8199 11.084L12.8199 8.41309C12.8199 5.31348 14.713 3.625 17.479 3.625C18.804 3.625 19.942 3.72363 20.274 3.76758L20.274 7.00781L18.356 7.00879C16.8521 7.00879 16.561 7.72363 16.561 8.77246L16.561 11.085L20.1479 11.085L19.681 14.707L16.561 14.707L16.561 24L22.677 24C23.407 24 24 23.4072 24 22.6748L24 1.3252C24 0.592773 23.407 0 22.675 0Z" fill="#FBFCFE" fill-opacity="1.000000" fill-rule="nonzero"/>
</svg>
