<svg width="24.000000" height="19.503906" viewBox="0 0 24 19.5039" fill="none" xmlns="http://www.w3.org/2000/svg" xmlns:xlink="http://www.w3.org/1999/xlink">
	<desc>
			Created with Pixso.
	</desc>
	<defs/>
	<path id="Path" d="M24 2.30859C23.1169 2.70117 22.168 2.96484 21.172 3.08398C22.189 2.47461 22.97 1.50977 23.337 0.360352C22.386 0.923828 21.332 1.33398 20.21 1.55469C19.313 0.597656 18.032 0 16.616 0C13.437 0 11.101 2.96582 11.819 6.04492C7.72803 5.83984 4.09998 3.87988 1.67102 0.901367C0.380981 3.11426 1.00195 6.00879 3.19397 7.47461C2.38794 7.44922 1.62805 7.22754 0.964966 6.85938C0.911011 9.13965 2.54602 11.2744 4.91394 11.749C4.22095 11.9365 3.46204 11.9814 2.68994 11.833C3.31604 13.7891 5.13403 15.2119 7.29004 15.252C5.21997 16.875 2.61206 17.5996 0 17.292C2.17896 18.6895 4.76794 19.5039 7.54797 19.5039C16.6899 19.5039 21.855 11.7832 21.543 4.8584C22.505 4.16309 23.34 3.2959 24 2.30859Z" fill="#FBFCFE" fill-opacity="1.000000" fill-rule="nonzero"/>
</svg>
